<svg width="142" height="66" viewBox="0 0 142 66" fill="none" xmlns="http://www.w3.org/2000/svg">
<g clip-path="url(#clip0_4_106)">
<path d="M20.48 33.06C13.4 33.06 7.65 27.32 7.65 20.23C7.65 13.14 13.4 7.41 20.48 7.41C26.81 7.41 32.06 12 33.1 18.03H40.87C39.96 7.33 32.07 0 20.52 0C8.15 0 0 8.3 0 20.14C0 31.83 8.15 40.36 20.52 40.36C32.45 40.36 40.47 32.33 40.94 21.18H33.26C32.77 27.82 27.24 33.06 20.48 33.06Z" fill="black"/>
<path d="M72.4698 0.0400195V7.28002C78.8098 8.06002 83.7198 13.45 83.7198 20C83.7198 27.08 77.9798 32.83 70.8898 32.83C63.7998 32.83 58.0598 27.09 58.0598 20C58.0598 13.45 62.9698 8.06002 69.3098 7.28002V0.0200195C57.7698 0.66002 50.2598 8.75002 50.2598 20.12C50.2598 31.81 58.4098 40.34 70.7798 40.34C83.0798 40.34 91.2198 31.82 91.2198 20.12C91.2498 8.82002 83.8298 0.76002 72.4698 0.0400195Z" fill="black"/>
<path d="M121.1 0C116.28 0 112.1 1.27 108.8 3.5L113.98 9.41C116.04 8.01 118.52 7.18 121.2 7.18C128.28 7.18 134.03 12.92 134.03 20.01C134.03 27.1 128.29 32.84 121.2 32.84C114.12 32.84 108.37 27.1 108.37 20.01C108.37 16.74 109.61 13.76 111.62 11.5L106.35 5.49C102.67 9.05 100.58 14.14 100.58 20.15C100.58 31.84 108.73 40.37 121.1 40.37C133.4 40.37 141.54 31.85 141.54 20.15C141.54 8.3 133.39 0 121.1 0Z" fill="black"/>
<path d="M90.6201 51.96H94.3401V53.51C95.0101 52.38 95.7901 51.78 98.3601 51.72C102.87 51.62 103.74 54.41 103.74 58.12V65.67H99.5201V57.96C99.5201 56.11 99.1701 55.22 97.2301 55.22C95.4001 55.22 94.8101 56.16 94.8101 57.96V65.67H90.6201V51.96Z" fill="black"/>
<path d="M30.9502 60.72H35.0102C35.0102 62.01 35.6002 62.87 37.7002 62.87C39.3702 62.87 39.9602 62.28 39.9602 61.58C39.9602 59.46 31.1702 60.96 31.1702 56.12C31.1702 53.67 32.9702 51.71 37.4902 51.71C42.1702 51.71 43.6502 53.4 43.6502 56.66H39.7802C39.7802 55.45 39.2202 54.67 37.4902 54.67C35.8802 54.67 35.3902 55.13 35.3902 55.88C35.3902 57.98 44.1302 56.36 44.1302 61.53C44.1302 63.63 42.3302 65.91 37.8402 65.91C33.0202 65.9 30.9502 64.48 30.9502 60.72Z" fill="black"/>
<path d="M60.9302 60.72H64.9902C64.9902 62.01 65.5802 62.87 67.6802 62.87C69.3502 62.87 69.9402 62.28 69.9402 61.58C69.9402 59.46 61.1502 60.96 61.1502 56.12C61.1502 53.67 62.9502 51.71 67.4702 51.71C72.1502 51.71 73.6302 53.4 73.6302 56.66H69.7602C69.7602 55.45 69.2002 54.67 67.4702 54.67C65.8602 54.67 65.3702 55.13 65.3702 55.88C65.3702 57.98 74.1102 56.36 74.1102 61.53C74.1102 63.63 72.3102 65.91 67.8202 65.91C63.0002 65.9 60.9302 64.48 60.9302 60.72Z" fill="black"/>
<path d="M75.2798 58.78C75.2798 55.2 76.7298 51.71 82.1598 51.71C87.5598 51.71 89.0398 55.2 89.0398 58.78C89.0398 62.41 87.5598 65.9 82.1298 65.9C76.6798 65.9 75.2798 62.33 75.2798 58.78ZM82.1298 62.38C84.3098 62.38 85.0098 60.98 85.0098 58.78C85.0098 56.63 84.3898 55.2 82.1598 55.2C80.0098 55.2 79.3398 56.6 79.3398 58.78C79.3398 60.99 80.0398 62.38 82.1298 62.38Z" fill="black"/>
<path d="M106.15 51.95H110.37V65.66H106.15V51.95Z" fill="black"/>
<path d="M112.11 58.78C112.11 55.26 113.32 51.71 117.62 51.71C119.74 51.71 121.09 52.44 121.68 53.27V51.41H125.9V65.66H122.16L122.17 64.11C121.44 65.21 120.68 65.9 118.02 65.9C113.48 65.9 112.11 62.28 112.11 58.78ZM119.05 62.44C121.36 62.44 121.77 60.96 121.77 58.78C121.77 56.68 121.47 55.12 119.08 55.12C116.79 55.12 116.39 56.63 116.39 58.78C116.39 60.93 116.79 62.44 119.05 62.44Z" fill="black"/>
<path d="M127.78 58.78C127.78 55.2 129.23 51.71 134.66 51.71C140.06 51.71 141.54 55.2 141.54 58.78C141.54 62.41 140.06 65.9 134.63 65.9C129.18 65.9 127.78 62.33 127.78 58.78ZM134.63 62.38C136.81 62.38 137.51 60.98 137.51 58.78C137.51 56.63 136.89 55.2 134.66 55.2C132.51 55.2 131.84 56.6 131.84 58.78C131.84 60.99 132.54 62.38 134.63 62.38Z" fill="black"/>
<path d="M45.52 61.67C45.52 59.04 47.32 57.93 51.17 57.53L54.77 57.15C54.77 55.32 54.18 54.73 52.35 54.73C50.63 54.73 50.15 55.54 50.15 56.64H46.06C46.06 53.71 47.24 51.69 52.24 51.69C58.1 51.69 58.96 54.32 58.96 57.87V65.64H55.24L55.25 64.09C54.45 65.3 53.67 65.83 51.22 65.88C48 65.95 45.52 64.55 45.52 61.67ZM52.08 62.93C53.96 62.93 54.8 61.83 54.77 59.89L52.08 60.21C50.41 60.4 49.9 60.86 49.9 61.5C49.9 62.34 50.55 62.93 52.08 62.93Z" fill="black"/>
<path d="M15.8501 61.67C15.8501 59.04 17.6501 57.93 21.5001 57.53L25.1001 57.15C25.1001 55.32 24.5101 54.73 22.6801 54.73C20.9601 54.73 20.4801 55.54 20.4801 56.64H16.3901C16.3901 53.71 17.5701 51.69 22.5701 51.69C28.4301 51.69 29.2901 54.32 29.2901 57.87V65.64H25.5701L25.5801 64.09C24.7801 65.3 24.0001 65.83 21.5501 65.88C18.3201 65.95 15.8501 64.55 15.8501 61.67ZM22.4001 62.93C24.2801 62.93 25.1201 61.83 25.0901 59.89L22.4001 60.21C20.7301 60.4 20.2201 60.86 20.2201 61.5C20.2301 62.34 20.8701 62.93 22.4001 62.93Z" fill="black"/>
<path d="M10.46 59.55C10.3 61.3 9.53002 62.38 7.62002 62.38C5.52002 62.38 4.82002 60.98 4.82002 58.78C4.82002 56.6 5.49002 55.2 7.64002 55.2C9.52002 55.2 10.25 56.21 10.44 57.82H14.49C14.23 54.6 12.57 51.7 7.65002 51.7C2.22002 51.7 0.77002 55.19 0.77002 58.77C0.77002 62.32 2.17002 65.89 7.62002 65.89C12.66 65.89 14.3 62.87 14.5 59.54H10.46V59.55Z" fill="black"/>
</g>
<defs>
<clipPath id="clip0_4_106">
<rect width="142" height="66" fill="white"/>
</clipPath>
</defs>
</svg>
